<mxfile host="65bd71144e">
    <diagram id="DdC7v0-sf0cuAMHUImkT" name="Sistema">
        <mxGraphModel dx="3184" dy="1877" grid="1" gridSize="10" guides="1" tooltips="1" connect="1" arrows="1" fold="1" page="1" pageScale="1" pageWidth="827" pageHeight="1169" math="0" shadow="0">
            <root>
                <mxCell id="dlyR38uP12VQZ94YJn3X-0"/>
                <mxCell id="dlyR38uP12VQZ94YJn3X-1" parent="dlyR38uP12VQZ94YJn3X-0"/>
                <object placeholders="1" c4Name="Platform MyFood" c4Type="Software System" c4Description="Plataforma permite que interessados façam pedidos de produtos alimenticios e recebam em suas casas." label="&lt;font style=&quot;font-size: 16px&quot;&gt;&lt;b&gt;%c4Name%&lt;/b&gt;&lt;/font&gt;&lt;div&gt;[%c4Type%]&lt;/div&gt;&lt;br&gt;&lt;div&gt;&lt;font style=&quot;font-size: 11px&quot;&gt;&lt;font color=&quot;#cccccc&quot;&gt;%c4Description%&lt;/font&gt;&lt;/div&gt;" id="Ip9fUzfQ8XZklSCMSeMm-0">
                    <mxCell style="rounded=1;whiteSpace=wrap;html=1;labelBackgroundColor=none;fillColor=#1061B0;fontColor=#ffffff;align=center;arcSize=10;strokeColor=#0D5091;metaEdit=1;resizable=0;points=[[0.25,0,0],[0.5,0,0],[0.75,0,0],[1,0.25,0],[1,0.5,0],[1,0.75,0],[0.75,1,0],[0.5,1,0],[0.25,1,0],[0,0.75,0],[0,0.5,0],[0,0.25,0]];" vertex="1" parent="dlyR38uP12VQZ94YJn3X-1">
                        <mxGeometry x="294" y="290" width="240" height="120" as="geometry"/>
                    </mxCell>
                </object>
                <object placeholders="1" c4Name="Cliente " c4Type="Person" c4Description="Clinte da plataforma " label="&lt;font style=&quot;font-size: 16px&quot;&gt;&lt;b&gt;%c4Name%&lt;/b&gt;&lt;/font&gt;&lt;div&gt;[%c4Type%]&lt;/div&gt;&lt;br&gt;&lt;div&gt;&lt;font style=&quot;font-size: 11px&quot;&gt;&lt;font color=&quot;#cccccc&quot;&gt;%c4Description%&lt;/font&gt;&lt;/div&gt;" id="Ip9fUzfQ8XZklSCMSeMm-1">
                    <mxCell style="html=1;fontSize=11;dashed=0;whitespace=wrap;fillColor=#083F75;strokeColor=#06315C;fontColor=#ffffff;shape=mxgraph.c4.person2;align=center;metaEdit=1;points=[[0.5,0,0],[1,0.5,0],[1,0.75,0],[0.75,1,0],[0.5,1,0],[0.25,1,0],[0,0.75,0],[0,0.5,0]];resizable=0;" vertex="1" parent="dlyR38uP12VQZ94YJn3X-1">
                        <mxGeometry x="40" y="40" width="200" height="180" as="geometry"/>
                    </mxCell>
                </object>
                <object placeholders="1" c4Name="Comerciante" c4Type="Person" c4Description="Lojista da Plataforma" label="&lt;font style=&quot;font-size: 16px&quot;&gt;&lt;b&gt;%c4Name%&lt;/b&gt;&lt;/font&gt;&lt;div&gt;[%c4Type%]&lt;/div&gt;&lt;br&gt;&lt;div&gt;&lt;font style=&quot;font-size: 11px&quot;&gt;&lt;font color=&quot;#cccccc&quot;&gt;%c4Description%&lt;/font&gt;&lt;/div&gt;" id="Ip9fUzfQ8XZklSCMSeMm-2">
                    <mxCell style="html=1;fontSize=11;dashed=0;whitespace=wrap;fillColor=#083F75;strokeColor=#06315C;fontColor=#ffffff;shape=mxgraph.c4.person2;align=center;metaEdit=1;points=[[0.5,0,0],[1,0.5,0],[1,0.75,0],[0.75,1,0],[0.5,1,0],[0.25,1,0],[0,0.75,0],[0,0.5,0]];resizable=0;" vertex="1" parent="dlyR38uP12VQZ94YJn3X-1">
                        <mxGeometry x="570" y="40" width="200" height="180" as="geometry"/>
                    </mxCell>
                </object>
                <object placeholders="1" c4Name="Motoboy" c4Type="Person" c4Description="Motorista da Plataforma" label="&lt;font style=&quot;font-size: 16px&quot;&gt;&lt;b&gt;%c4Name%&lt;/b&gt;&lt;/font&gt;&lt;div&gt;[%c4Type%]&lt;/div&gt;&lt;br&gt;&lt;div&gt;&lt;font style=&quot;font-size: 11px&quot;&gt;&lt;font color=&quot;#cccccc&quot;&gt;%c4Description%&lt;/font&gt;&lt;/div&gt;" id="Ip9fUzfQ8XZklSCMSeMm-3">
                    <mxCell style="html=1;fontSize=11;dashed=0;whitespace=wrap;fillColor=#083F75;strokeColor=#06315C;fontColor=#ffffff;shape=mxgraph.c4.person2;align=center;metaEdit=1;points=[[0.5,0,0],[1,0.5,0],[1,0.75,0],[0.75,1,0],[0.5,1,0],[0.25,1,0],[0,0.75,0],[0,0.5,0]];resizable=0;" vertex="1" parent="dlyR38uP12VQZ94YJn3X-1">
                        <mxGeometry x="40" y="550" width="200" height="180" as="geometry"/>
                    </mxCell>
                </object>
                <object placeholders="1" c4Name="Plataforma " c4Type="Person" c4Description="Propria plataforma" label="&lt;font style=&quot;font-size: 16px&quot;&gt;&lt;b&gt;%c4Name%&lt;/b&gt;&lt;/font&gt;&lt;div&gt;[%c4Type%]&lt;/div&gt;&lt;br&gt;&lt;div&gt;&lt;font style=&quot;font-size: 11px&quot;&gt;&lt;font color=&quot;#cccccc&quot;&gt;%c4Description%&lt;/font&gt;&lt;/div&gt;" id="Ip9fUzfQ8XZklSCMSeMm-4">
                    <mxCell style="html=1;fontSize=11;dashed=0;whitespace=wrap;fillColor=#083F75;strokeColor=#06315C;fontColor=#ffffff;shape=mxgraph.c4.person2;align=center;metaEdit=1;points=[[0.5,0,0],[1,0.5,0],[1,0.75,0],[0.75,1,0],[0.5,1,0],[0.25,1,0],[0,0.75,0],[0,0.5,0]];resizable=0;" vertex="1" parent="dlyR38uP12VQZ94YJn3X-1">
                        <mxGeometry x="570" y="550" width="200" height="180" as="geometry"/>
                    </mxCell>
                </object>
                <object placeholders="1" c4Type="Relationship" c4Description="Vender os produtos, Solicitar coleta de Pedidos (Caso não possuo motoboy), Acompanhar Pedidos, Relatorios de Vendas" label="&lt;div style=&quot;text-align: left&quot;&gt;&lt;div style=&quot;text-align: center&quot;&gt;&lt;b&gt;%c4Description%&lt;/b&gt;&lt;/div&gt;" id="Ip9fUzfQ8XZklSCMSeMm-8">
                    <mxCell style="endArrow=blockThin;html=1;fontSize=10;fontColor=#FFF;strokeWidth=1;endFill=1;strokeColor=#828282;elbow=vertical;metaEdit=1;endSize=14;startSize=14;jumpStyle=arc;jumpSize=16;rounded=0;edgeStyle=orthogonalEdgeStyle;curved=1;entryX=0.75;entryY=0;entryDx=0;entryDy=0;entryPerimeter=0;exitX=0;exitY=0.75;exitDx=0;exitDy=0;exitPerimeter=0;" edge="1" parent="dlyR38uP12VQZ94YJn3X-1" source="Ip9fUzfQ8XZklSCMSeMm-2" target="Ip9fUzfQ8XZklSCMSeMm-0">
                        <mxGeometry x="-1" y="117" width="240" relative="1" as="geometry">
                            <mxPoint x="240" y="190" as="sourcePoint"/>
                            <mxPoint x="364" y="300" as="targetPoint"/>
                            <Array as="points">
                                <mxPoint x="500" y="200"/>
                            </Array>
                            <mxPoint x="90" y="-42" as="offset"/>
                        </mxGeometry>
                    </mxCell>
                </object>
                <object placeholders="1" c4Type="Relationship" c4Description="Receber notificação de Coleta de Pedidos, Visualizar Remetente/Destino do Pedido, Coletar Pedido, Entregar Pedido" label="&lt;div style=&quot;text-align: left&quot;&gt;&lt;div style=&quot;text-align: center&quot;&gt;&lt;b&gt;%c4Description%&lt;/b&gt;&lt;/div&gt;" id="Ip9fUzfQ8XZklSCMSeMm-10">
                    <mxCell style="endArrow=blockThin;html=1;fontSize=10;fontColor=#FFF;strokeWidth=1;endFill=1;strokeColor=#828282;elbow=vertical;metaEdit=1;endSize=14;startSize=14;jumpStyle=arc;jumpSize=16;rounded=0;edgeStyle=orthogonalEdgeStyle;curved=1;exitX=1;exitY=0.5;exitDx=0;exitDy=0;exitPerimeter=0;" edge="1" parent="dlyR38uP12VQZ94YJn3X-1" source="Ip9fUzfQ8XZklSCMSeMm-3">
                        <mxGeometry width="240" relative="1" as="geometry">
                            <mxPoint x="170" y="480" as="sourcePoint"/>
                            <mxPoint x="340" y="410" as="targetPoint"/>
                            <Array as="points">
                                <mxPoint x="340" y="540"/>
                            </Array>
                        </mxGeometry>
                    </mxCell>
                </object>
                <object placeholders="1" c4Type="Relationship" c4Description="Disponibilizar Assinaturas, Conceder Beneficios por Assinatura" label="&lt;div style=&quot;text-align: left&quot;&gt;&lt;div style=&quot;text-align: center&quot;&gt;&lt;b&gt;%c4Description%&lt;/b&gt;&lt;/div&gt;" id="Ip9fUzfQ8XZklSCMSeMm-11">
                    <mxCell style="endArrow=blockThin;html=1;fontSize=10;fontColor=#FFF;strokeWidth=1;endFill=1;strokeColor=#828282;elbow=vertical;metaEdit=1;endSize=14;startSize=14;jumpStyle=arc;jumpSize=16;rounded=0;edgeStyle=orthogonalEdgeStyle;curved=1;entryX=0.75;entryY=1;entryDx=0;entryDy=0;entryPerimeter=0;exitX=0;exitY=0.5;exitDx=0;exitDy=0;exitPerimeter=0;" edge="1" parent="dlyR38uP12VQZ94YJn3X-1" source="Ip9fUzfQ8XZklSCMSeMm-4" target="Ip9fUzfQ8XZklSCMSeMm-0">
                        <mxGeometry width="240" relative="1" as="geometry">
                            <mxPoint x="250" y="694.9999999999998" as="sourcePoint"/>
                            <mxPoint x="364" y="420" as="targetPoint"/>
                            <Array as="points">
                                <mxPoint x="470" y="490"/>
                            </Array>
                        </mxGeometry>
                    </mxCell>
                </object>
                <object c4Type="Relationship" c4Description="Visualizar Produtos, Colocar Produtos no Carrinho, Efetuar um Pedido, Acompanhar Pedidos, Receber um Pedido, Avaliar o Pedido" label="&lt;div style=&quot;text-align: left&quot;&gt;&lt;div style=&quot;text-align: center&quot;&gt;&lt;b&gt;%c4Description%&lt;/b&gt;&lt;/div&gt;" placeholders="1" id="Ip9fUzfQ8XZklSCMSeMm-5">
                    <mxCell style="endArrow=blockThin;html=1;fontSize=10;fontColor=#FFF;strokeWidth=1;endFill=1;strokeColor=#000000;elbow=vertical;metaEdit=1;endSize=14;startSize=14;jumpStyle=arc;jumpSize=16;rounded=0;edgeStyle=orthogonalEdgeStyle;curved=1;entryX=0.25;entryY=0;entryDx=0;entryDy=0;entryPerimeter=0;fillColor=#99CCFF;shadow=0;" edge="1" parent="dlyR38uP12VQZ94YJn3X-1" target="Ip9fUzfQ8XZklSCMSeMm-0">
                        <mxGeometry x="-1" y="-120" width="240" relative="1" as="geometry">
                            <mxPoint x="230" y="180" as="sourcePoint"/>
                            <mxPoint x="470" y="180" as="targetPoint"/>
                            <Array as="points">
                                <mxPoint x="330" y="210"/>
                            </Array>
                            <mxPoint x="-90" y="-40" as="offset"/>
                        </mxGeometry>
                    </mxCell>
                </object>
            </root>
        </mxGraphModel>
    </diagram>
</mxfile>